<?xml version="1.0" encoding="UTF-8"?>
<svg id="Layer_2" xmlns="http://www.w3.org/2000/svg" version="1.1" viewBox="0 0 164.7 166.3">
  <!-- Generator: Adobe Illustrator 29.3.1, SVG Export Plug-In . SVG Version: 2.1.0 Build 151)  -->
  <defs>
    <style>
      .st0 {
        fill: #2b2b2b;
      }

      .st1 {
        fill: #f6f4f1;
      }
    </style>
  </defs>
  <path class="st0" d="M1.3,153.5c0,5.8,4.8,10.6,10.6,10.6h108.9c5.8,0,15-1.8,20.4-4.1l12.3-5.1c5.4-2.2,9.8-4.1,9.8-4.1V12.8c0-5.8-4.8-10.6-10.6-10.6H43.8c-5.8,0-15,1.8-20.4,4.1l-12.2,5.1C5.7,13.5,1.3,15.4,1.3,15.4v138.1Z"/>
  <g>
    <path class="st1" d="M76.1,124.7l-12.4,5.2V47.5s-21.4,9.2-21.4,9.2v-11.2s31.9-13.3,31.9-13.3h1.9v92.6s0,0,0,0Z"/>
    <path class="st1" d="M87.1,37.3l12.4-5.2v82.4s21.4-9.2,21.4-9.2v11.2s-31.9,13.3-31.9,13.3h-1.9V37.4s0,0,0,0Z"/>
  </g>
</svg>