<?xml version="1.0" encoding="utf-8"?>
<!-- Generator: Adobe Illustrator 27.4.1, SVG Export Plug-In . SVG Version: 6.00 Build 0)  -->
<svg version="1.1" id="Layer_1" xmlns="http://www.w3.org/2000/svg" xmlns:xlink="http://www.w3.org/1999/xlink" x="0px" y="0px"
	 viewBox="0 0 179.67 179.67" style="enable-background:new 0 0 179.67 179.67;" xml:space="preserve">
<style type="text/css">
	.st0{fill:#FFFFFF;}
</style>
<circle class="st0" cx="89.83" cy="89.83" r="89.83"/>
<g>
	<g>
		<path d="M42.97,74.48V44.64h7.85c3.21,0,5.64,0.65,7.29,1.96c1.65,1.31,2.47,3.2,2.47,5.69c0,1.8-0.46,3.3-1.37,4.49
			c-0.92,1.19-2.21,1.95-3.87,2.28c1.89,0.25,3.46,1.06,4.71,2.45c1.26,1.39,1.89,2.98,1.89,4.77c0,2.54-0.82,4.55-2.47,6.02
			c-1.65,1.47-3.94,2.2-6.88,2.2H42.97z M44.08,58.64h7.15c2.72,0,4.77-0.52,6.15-1.57c1.38-1.05,2.07-2.67,2.07-4.87
			c0-4.24-2.79-6.39-8.38-6.46h-6.99V58.64z M44.08,59.75v13.63h8.63c2.53,0,4.51-0.63,5.95-1.88c1.44-1.25,2.16-2.98,2.16-5.2
			c0-1.89-0.7-3.44-2.09-4.66c-1.39-1.22-3.26-1.85-5.6-1.9H44.08z"/>
		<path d="M77.49,53.12L76.05,53c-1.89,0-3.46,0.61-4.73,1.83c-1.27,1.22-2.1,2.93-2.5,5.13v14.52h-1.11V52.3h1.11v4.61
			c0.6-1.54,1.5-2.77,2.71-3.67c1.2-0.9,2.71-1.35,4.53-1.35c0.64,0,1.16,0.08,1.56,0.23L77.49,53.12z"/>
		<path d="M95.26,74.48c-0.27-0.94-0.41-2.3-0.41-4.06c-0.87,1.42-2.07,2.52-3.59,3.3c-1.52,0.78-3.23,1.17-5.14,1.17
			c-2.05,0-3.7-0.56-4.95-1.67c-1.25-1.11-1.88-2.57-1.88-4.36c0-2.04,0.92-3.67,2.76-4.89c1.84-1.22,4.28-1.85,7.33-1.88h5.47
			v-3.24c0-1.86-0.58-3.3-1.75-4.32C91.93,53.51,90.26,53,88.08,53c-2.02,0-3.71,0.52-5.06,1.56c-1.35,1.04-2.03,2.32-2.03,3.85
			l-1.11-0.04c0-1.8,0.79-3.33,2.38-4.59c1.59-1.26,3.53-1.89,5.82-1.89c2.39,0,4.29,0.6,5.7,1.79c1.41,1.2,2.13,2.88,2.17,5.05
			v10.6c0,2.43,0.19,4.09,0.57,4.96v0.18H95.26z M86.12,73.79c2.08,0,3.86-0.46,5.36-1.39c1.5-0.93,2.62-2.23,3.37-3.91v-5.27h-5.12
			c-3.17,0-5.6,0.63-7.28,1.89c-1.37,1.02-2.05,2.3-2.05,3.83c0,1.35,0.54,2.5,1.62,3.44C83.1,73.31,84.46,73.79,86.12,73.79z"/>
		<path d="M104.19,57.47c0.72-1.72,1.79-3.08,3.2-4.08c1.41-1,2.96-1.5,4.67-1.5c2.38,0,4.14,0.67,5.3,2.02
			c1.15,1.35,1.74,3.38,1.75,6.1v14.47h-1.11v-14.5c-0.01-2.38-0.5-4.13-1.46-5.27C115.6,53.57,114.08,53,112,53
			c-1.91,0-3.57,0.68-4.97,2.04c-1.4,1.36-2.35,3.11-2.84,5.25v14.19h-1.11V52.3h1.11V57.47z"/>
		<path d="M125.04,63.17c0-3.54,0.74-6.3,2.23-8.29c1.49-1.99,3.53-2.98,6.13-2.98c1.67,0,3.14,0.38,4.42,1.13
			c1.28,0.75,2.31,1.87,3.11,3.36V43h1.11v31.48h-1.11v-3.55c-0.75,1.26-1.78,2.23-3.1,2.92c-1.31,0.69-2.8,1.04-4.47,1.04
			c-2.57,0-4.6-1.02-6.09-3.05c-1.49-2.04-2.23-4.83-2.23-8.38V63.17z M126.19,63.6c0,3.14,0.62,5.63,1.87,7.45
			c1.24,1.82,3.01,2.74,5.29,2.74c1.83,0,3.4-0.41,4.69-1.22c1.3-0.81,2.26-2.01,2.89-3.58V58.6c-1.27-3.73-3.79-5.6-7.54-5.6
			c-2.27,0-4.03,0.9-5.3,2.69C126.82,57.48,126.19,60.11,126.19,63.6z"/>
	</g>
	<g>
		<path d="M30.1,113.33h20.49v9.05H18.33V73.57H30.1V113.33z"/>
		<path d="M53.61,103.91c0-3.62,0.7-6.85,2.11-9.67c1.41-2.83,3.43-5,6.07-6.52c2.64-1.52,5.73-2.28,9.29-2.28
			c5.43,0,9.71,1.68,12.84,5.05c3.13,3.36,4.69,7.94,4.69,13.73v0.4c0,5.66-1.57,10.14-4.71,13.46c-3.14,3.32-7.39,4.98-12.76,4.98
			c-5.16,0-9.31-1.55-12.44-4.64c-3.13-3.1-4.82-7.29-5.06-12.59L53.61,103.91z M64.9,104.61c0,3.35,0.52,5.81,1.58,7.38
			c1.05,1.56,2.6,2.35,4.66,2.35c4.02,0,6.08-3.1,6.17-9.29v-1.14c0-6.51-2.08-9.76-6.24-9.76c-3.78,0-5.82,2.81-6.14,8.42
			L64.9,104.61z"/>
		<path d="M92.27,103.98c0-3.67,0.6-6.91,1.81-9.72c1.21-2.82,2.94-4.99,5.2-6.52c2.26-1.53,4.88-2.3,7.88-2.3
			c3.78,0,6.73,1.27,8.85,3.82l0.4-3.15h10.26v34.9c0,3.2-0.74,5.97-2.23,8.33c-1.49,2.36-3.64,4.17-6.45,5.43
			c-2.82,1.26-6.08,1.89-9.79,1.89c-2.66,0-5.24-0.5-7.73-1.51c-2.49-1.01-4.4-2.31-5.72-3.92l4.73-6.64
			c2.1,2.48,4.87,3.72,8.32,3.72c5.01,0,7.51-2.57,7.51-7.71v-1.14c-2.17,2.39-4.91,3.59-8.21,3.59c-4.43,0-8-1.69-10.73-5.08
			c-2.73-3.39-4.09-7.92-4.09-13.6V103.98z M103.6,104.68c0,2.97,0.56,5.33,1.68,7.06c1.12,1.73,2.68,2.6,4.69,2.6
			c2.44,0,4.21-0.82,5.33-2.45V96.63c-1.1-1.65-2.85-2.48-5.26-2.48c-2.01,0-3.59,0.9-4.73,2.7
			C104.17,98.65,103.6,101.26,103.6,104.68z"/>
		<path d="M131.66,103.91c0-3.62,0.7-6.85,2.11-9.67c1.41-2.83,3.43-5,6.07-6.52c2.64-1.52,5.73-2.28,9.29-2.28
			c5.43,0,9.71,1.68,12.84,5.05c3.13,3.36,4.69,7.94,4.69,13.73v0.4c0,5.66-1.57,10.14-4.71,13.46c-3.14,3.32-7.39,4.98-12.76,4.98
			c-5.16,0-9.31-1.55-12.44-4.64c-3.13-3.1-4.82-7.29-5.06-12.59L131.66,103.91z M142.96,104.61c0,3.35,0.52,5.81,1.58,7.38
			c1.05,1.56,2.6,2.35,4.66,2.35c4.02,0,6.08-3.1,6.17-9.29v-1.14c0-6.51-2.08-9.76-6.24-9.76c-3.78,0-5.82,2.81-6.14,8.42
			L142.96,104.61z"/>
	</g>
</g>
</svg>
