<?xml version="1.0" encoding="UTF-8"?>
<svg id="Layer_2" data-name="Layer 2" xmlns="http://www.w3.org/2000/svg" viewBox="0 0 197.31 58.19">
  <defs>
    <style>
      .cls-1 {
        fill: #f6f4f1;
      }
    </style>
  </defs>
  <g id="Layer_1-2" data-name="Layer 1">
    <g>
      <path class="cls-1" d="M6.34.78l20.89,49.98L48.19.78h6.38v56.63h-4.79v-24.66l.39-25.28-21.08,49.94h-3.7L4.4,7.66l.39,24.93v24.82H0V.78h6.34Z"/>
      <path class="cls-1" d="M91.93,30.71c-2.62-1.49-6.47-2.93-11.55-4.32-5.08-1.39-8.78-2.99-11.09-4.81-2.31-1.82-3.46-4.17-3.46-7.05,0-3.12,1.28-5.64,3.85-7.58,2.57-1.93,6.02-2.9,10.35-2.9s8.01,1.18,10.66,3.53c2.1,1.86,3.35,4.22,3.78,7.04h4.86c-.3-2.29-1.07-4.41-2.3-6.37-1.63-2.59-3.94-4.62-6.9-6.07-2.97-1.45-6.33-2.18-10.09-2.18-5.55,0-10.11,1.35-13.67,4.06s-5.35,6.23-5.35,10.56,1.92,8.06,5.76,10.81c2.7,1.94,6.98,3.74,12.84,5.39,5.86,1.65,9.89,3.38,12.1,5.21s3.31,4.31,3.31,7.45-1.34,5.79-4.01,7.74-6.21,2.92-10.62,2.92c-4.95,0-8.92-1.15-11.9-3.46-2.98-2.31-4.47-5.46-4.47-9.45h-4.78c0,3.32.86,6.26,2.59,8.83,1.72,2.57,4.25,4.56,7.58,5.99,3.33,1.43,6.99,2.14,10.99,2.14,5.83,0,10.53-1.35,14.1-4.05,3.57-2.7,5.35-6.27,5.35-10.74,0-2.83-.66-5.28-1.98-7.35-1.32-2.07-3.29-3.86-5.91-5.35Z"/>
      <path class="cls-1" d="M181.51,58.19c-3.58,0-6.81-.88-9.7-2.65-2.89-1.76-5.14-4.22-6.75-7.37-1.61-3.15-2.41-6.68-2.41-10.6v-1.67c0-4.04.78-7.69,2.35-10.93,1.57-3.24,3.75-5.79,6.55-7.64,2.8-1.85,5.83-2.78,9.1-2.78,5.11,0,9.16,1.74,12.16,5.23,3,3.49,4.49,8.25,4.49,14.29v2.61h-30.03v.89c0,4.77,1.37,8.75,4.1,11.92,2.74,3.18,6.18,4.76,10.33,4.76,2.49,0,4.69-.45,6.59-1.36,1.91-.91,3.64-2.36,5.19-4.36l2.92,2.22c-3.42,4.95-8.39,7.43-14.9,7.43ZM180.66,18.51c-3.5,0-6.45,1.28-8.85,3.85-2.4,2.57-3.86,6.02-4.38,10.35h25.24v-.51c-.13-4.04-1.28-7.34-3.46-9.88-2.18-2.54-5.03-3.81-8.56-3.81Z"/>
      <g>
        <polygon class="cls-1" points="115.09 14.65 119.76 14.65 119.76 19.83 115.09 21.58 115.09 14.65"/>
        <polygon class="cls-1" points="119.76 57.41 115.09 57.41 115.09 25.86 119.76 24.14 119.76 57.41"/>
      </g>
      <path class="cls-1" d="M124.66,35.98c0-6.54,1.46-11.74,4.38-15.62,2.92-3.88,6.88-5.82,11.88-5.82,5.68,0,10.01,2.24,12.99,6.73V.67l4.63.03v56.71h-4.36l-.19-5.6c-2.98,4.25-7.37,6.38-13.15,6.38-4.85,0-8.76-1.95-11.73-5.85-2.97-3.9-4.45-9.17-4.45-15.81v-.54ZM129.37,36.8c0,5.37,1.08,9.6,3.23,12.7s5.19,4.65,9.1,4.65c5.73,0,9.8-2.53,12.21-7.58v-19.76c-2.41-5.47-6.46-8.21-12.14-8.21-3.92,0-6.96,1.54-9.14,4.61-2.18,3.07-3.27,7.6-3.27,13.59Z"/>
      <path class="cls-1" d="M108.78,57.41h-4.67V.77h4.67v56.65Z"/>
    </g>
  </g>
</svg>