<?xml version="1.0" encoding="UTF-8"?>
<svg id="Layer_1" xmlns="http://www.w3.org/2000/svg" version="1.1" viewBox="0 0 239.7 76.5">
  <!-- Generator: Adobe Illustrator 29.3.1, SVG Export Plug-In . SVG Version: 2.1.0 Build 151)  -->
  <defs>
    <style>
      .st0 {
        fill: #f6f4f1;
      }

      .st1 {
        opacity: 1;
      }
    </style>
  </defs>
  <g class="st1">
    <path class="st0" d="M8.3,4.4l25.1,60.1L58.7,4.4h7.7v68.1h-5.8v-29.6l.5-30.4-25.3,60h-4.5L5.9,12.7l.5,30v29.8H.7V4.4h7.6Z"/>
    <path class="st0" d="M111.2,40.4c-3.1-1.8-7.8-3.5-13.9-5.2s-10.5-3.5-13.3-5.8-4.2-5-4.2-8.5,1.5-6.8,4.7-9.1c3-2.3,7.2-3.4,12.5-3.4s9.6,1.4,12.8,4.3c2.5,2.2,4.1,5.1,4.6,8.4h5.9c-.4-2.7-1.3-5.3-2.7-7.6-1.9-3.1-4.8-5.6-8.3-7.3s-7.6-2.6-12.2-2.6c-6.7,0-12.2,1.6-16.4,4.9s-6.4,7.5-6.4,12.7,2.3,9.7,6.9,13c3.2,2.3,8.4,4.5,15.4,6.5,7.1,2,11.9,4.1,14.5,6.3s4,5.2,4,8.9-1.6,7-4.9,9.3c-3.2,2.3-7.5,3.5-12.8,3.5s-10.7-1.4-14.3-4.2c-3.5-2.7-5.4-6.6-5.4-11.4h-5.8c0,4,1,7.5,3.1,10.6,2,3,5.1,5.5,9.1,7.2,4.1,1.7,8.4,2.5,13.2,2.5,7,0,12.7-1.6,16.9-4.9,4.3-3.2,6.4-7.5,6.4-12.9s-.8-6.4-2.4-8.8c-1.6-2.5-4-4.7-7.1-6.4h.1Z"/>
    <path class="st0" d="M220.1,73.5c-4.3,0-8.2-1-11.7-3.1s-6.2-5.1-8.1-8.8c-1.9-3.8-2.9-8-2.9-12.8v-2c0-4.9.9-9.2,2.8-13.2,1.9-3.9,4.6-7,7.9-9.2s7-3.3,11-3.3c6.2,0,11.1,2.1,14.6,6.3,3.7,4.2,5.4,9.9,5.4,17.2v3.1h-36.1v1.1c0,5.8,1.6,10.5,5,14.3,3.2,3.9,7.4,5.8,12.4,5.8s5.7-.5,7.9-1.6c2.3-1.1,4.4-2.8,6.3-5.3l3.5,2.6c-4.2,6-10,8.9-17.9,8.9h0ZM219.1,25.8c-4.3,0-7.7,1.5-10.6,4.7-2.8,3-4.7,7.2-5.3,12.5h30.3v-.6c-.2-4.9-1.5-8.8-4.2-11.9s-6.1-4.6-10.2-4.6h0Z"/>
    <g>
      <polygon class="st0" points="139.3 21.2 144.8 21.2 144.8 27.3 139.3 29.5 139.3 21.2"/>
      <polygon class="st0" points="144.8 72.6 139.3 72.6 139.3 34.6 144.8 32.5 144.8 72.6"/>
    </g>
    <path class="st0" d="M150.7,46.8c0-7.9,1.7-14.1,5.3-18.8,3.5-4.7,8.3-7,14.3-7s12.1,2.7,15.6,8.1V4.3h5.6v68.2h-5.3l-.2-6.7c-3.5,5.1-8.8,7.7-15.8,7.7s-10.5-2.3-14.1-7-5.4-11.1-5.4-19.1v-.6h0ZM156.4,47.7c0,6.5,1.3,11.6,3.9,15.3s6.3,5.6,11,5.6c6.9,0,11.8-3,14.7-9.1v-23.7c-2.9-6.6-7.8-9.8-14.6-9.8s-8.4,1.8-11,5.6c-2.6,3.7-4,9.1-4,16.3h0Z"/>
    <path class="st0" d="M131.8,72.6h-5.6V4.4h5.6v68.1Z"/>
  </g>
</svg>