<?xml version="1.0" encoding="UTF-8"?>
<svg id="Layer_2" data-name="Layer 2" xmlns="http://www.w3.org/2000/svg" viewBox="0 0 774.09 198.64">
  <defs>
    <style>
      .cls-1 {
        fill: #f6f4f1;
      }
    </style>
  </defs>
  <g id="Layer_1-2" data-name="Layer 1">
    <path class="cls-1" d="M21.64,2.65l71.3,170.63L164.52,2.65h21.78v193.33h-16.34v-84.18l1.33-86.31-71.97,170.49h-12.61L15.01,26.16l1.33,85.11v84.72H0V2.65h21.64Z"/>
    <path class="cls-1" d="M313.82,104.83c-8.94-5.09-22.09-10.01-39.43-14.75-17.35-4.74-29.97-10.22-37.84-16.43-7.88-6.2-11.82-14.23-11.82-24.07,0-10.64,4.38-19.26,13.14-25.87,8.76-6.6,20.54-9.91,35.32-9.91s27.35,4.02,36.38,12.05c7.15,6.37,11.42,14.39,12.91,24.02h16.58c-1.04-7.82-3.65-15.07-7.85-21.73-5.58-8.85-13.43-15.76-23.57-20.72-10.14-4.96-21.62-7.43-34.46-7.43-18.94,0-34.5,4.62-46.67,13.87-12.17,9.25-18.26,21.27-18.26,36.05s6.55,27.53,19.65,36.91c9.2,6.64,23.81,12.77,43.82,18.39,20.01,5.62,33.77,11.55,41.29,17.79,7.52,6.24,11.29,14.72,11.29,25.43s-4.56,19.78-13.68,26.42c-9.12,6.64-21.2,9.96-36.25,9.96-16.91,0-30.45-3.94-40.63-11.82-10.18-7.88-15.27-18.63-15.27-32.26h-16.33c0,11.33,2.94,21.38,8.83,30.14,5.88,8.76,14.51,15.58,25.89,20.45,11.37,4.87,23.88,7.3,37.51,7.3,19.92,0,35.96-4.6,48.13-13.81,12.17-9.2,18.26-21.42,18.26-36.65,0-9.65-2.26-18.01-6.77-25.1-4.51-7.08-11.24-13.16-20.18-18.26Z"/>
    <path class="cls-1" d="M619.63,198.64c-12.21,0-23.26-3.01-33.13-9.03-9.87-6.02-17.55-14.4-23.04-25.16-5.49-10.75-8.23-22.82-8.23-36.18v-5.71c0-13.81,2.68-26.25,8.03-37.31,5.36-11.06,12.81-19.76,22.38-26.09,9.56-6.33,19.92-9.49,31.07-9.49,17.44,0,31.27,5.95,41.49,17.86,10.22,11.91,15.34,28.17,15.34,48.8v8.9h-102.5v3.05c0,16.29,4.67,29.85,14.01,40.7,9.34,10.84,21.09,16.27,35.25,16.27,8.5,0,16-1.55,22.51-4.65,6.5-3.1,12.41-8.05,17.73-14.87l9.96,7.57c-11.68,16.91-28.64,25.36-50.86,25.36ZM616.71,63.2c-11.95,0-22.02,4.38-30.21,13.14-8.19,8.76-13.17,20.54-14.94,35.32h86.18v-1.73c-.45-13.81-4.38-25.05-11.82-33.73-7.44-8.67-17.18-13.01-29.21-13.01Z"/>
    <polygon class="cls-1" points="392.89 50.01 408.82 50.01 408.82 67.68 392.89 73.66 392.89 50.01"/>
    <polygon class="cls-1" points="408.82 195.99 392.89 195.99 392.89 88.27 408.82 82.41 408.82 195.99"/>
    <path class="cls-1" d="M425.55,122.82c0-22.31,4.98-40.08,14.94-53.31,9.96-13.23,23.48-19.85,40.56-19.85,19.39,0,34.17,7.66,44.35,22.97V2.27l15.8.12v193.59h-14.87l-.66-19.12c-10.18,14.52-25.14,21.78-44.88,21.78-16.56,0-29.9-6.66-40.03-19.99-10.14-13.32-15.2-31.31-15.2-53.98v-1.86ZM441.62,125.61c0,18.33,3.67,32.78,11.02,43.35,7.35,10.58,17.71,15.87,31.07,15.87,19.56,0,33.46-8.63,41.69-25.89v-67.45c-8.23-18.68-22.04-28.02-41.43-28.02-13.37,0-23.77,5.25-31.2,15.74-7.44,10.49-11.15,25.96-11.15,46.41Z"/>
    <path class="cls-1" d="M371.35,195.99h-15.94V2.62h15.94v193.37Z"/>
    <path class="cls-1" d="M774.09,126.22h-81.14v-11.31l42.87-47.63c6.35-7.2,10.73-13.06,13.14-17.56,2.41-4.51,3.61-9.17,3.61-13.99,0-6.46-1.96-11.77-5.87-15.91-3.91-4.14-9.13-6.21-15.65-6.21-7.83,0-13.91,2.23-18.24,6.68-4.34,4.45-6.51,10.65-6.51,18.58h-15.73c0-11.4,3.67-20.61,11.01-27.64,7.34-7.03,17.17-10.55,29.47-10.55,11.51,0,20.61,3.02,27.3,9.06,6.69,6.04,10.04,14.08,10.04,24.11,0,12.19-7.77,26.71-23.3,43.55l-33.17,35.98h62.17v12.84Z"/>
  </g>
</svg>